Plode-Bold.ufo
<glyph name="_arrowhead.left" format="1">
  <advance width="600"/>
  <outline>
    <contour>
      <point x="89" y="306" type="line" name="hr00"/>
      <point x="417" y="-22" type="line"/>
      <point x="497" y="58" type="line"/>
      <point x="348" y="207" type="line"/>
      <point x="232" y="306" type="line"/>
      <point x="348" y="405" type="line"/>
      <point x="497" y="554" type="line"/>
      <point x="417" y="634" type="line"/>
    </contour>
  </outline>
</glyph>
<glyph name="_arrowhead.right" format="1">
  <advance width="600"/>
  <outline>
    <contour>
      <point x="511" y="306" type="line" name="hr00"/>
      <point x="183" y="634" type="line"/>
      <point x="103" y="554" type="line"/>
      <point x="252" y="405" type="line"/>
      <point x="368" y="306" type="line"/>
      <point x="252" y="207" type="line"/>
      <point x="103" y="58" type="line"/>
      <point x="183" y="-22" type="line"/>
    </contour>
  </outline>
</glyph>
<glyph name="ampersand_ampersand.liga" format="1">
  <advance width="1200"/>
  <outline>
    <contour>
      <point x="309" y="-12" type="curve" smooth="yes"/>
      <point x="390" y="-12"/>
      <point x="446" y="28"/>
      <point x="456" y="96" type="curve"/>
      <point x="446" y="124"/>
      <point x="440" y="156"/>
      <point x="440" y="190" type="curve" smooth="yes"/>
      <point x="440" y="224"/>
      <point x="446" y="256"/>
      <point x="458" y="286" type="curve"/>
      <point x="439" y="317" type="line"/>
      <point x="382" y="388" type="line" smooth="yes"/>
      <point x="318" y="467"/>
      <point x="299" y="492"/>
      <point x="299" y="530" type="curve" smooth="yes"/>
      <point x="299" y="535" type="line" smooth="yes"/>
      <point x="299" y="573"/>
      <point x="326" y="600"/>
      <point x="366" y="600" type="curve" smooth="yes"/>
      <point x="406" y="600"/>
      <point x="439" y="574"/>
      <point x="453" y="531" type="curve"/>
      <point x="494" y="553" type="line"/>
      <point x="497" y="586"/>
      <point x="507" y="616"/>
      <point x="523" y="642" type="curve"/>
      <point x="489" y="681"/>
      <point x="434" y="710"/>
      <point x="364" y="710" type="curve" smooth="yes"/>
      <point x="252" y="710"/>
      <point x="169" y="634"/>
      <point x="169" y="534" type="curve" smooth="yes"/>
      <point x="169" y="483"/>
      <point x="191" y="440"/>
      <point x="234" y="381" type="curve"/>
      <point x="157" y="336"/>
      <point x="116" y="274"/>
      <point x="116" y="190" type="curve" smooth="yes" name="hr02"/>
      <point x="116" y="82"/>
      <point x="184" y="-12"/>
    </contour>
    <contour>
      <point x="346" y="101" type="curve" smooth="yes"/>
      <point x="289" y="101"/>
      <point x="252" y="135"/>
      <point x="252" y="198" type="curve" smooth="yes"/>
      <point x="252" y="200" type="line" smooth="yes"/>
      <point x="252" y="238"/>
      <point x="260" y="272"/>
      <point x="294" y="305" type="curve"/>
      <point x="423" y="141" type="line"/>
      <point x="405" y="111"/>
      <point x="376" y="101"/>
    </contour>
    <component base="ampersand" xOffset="464"/>
  </outline>
</glyph>
<glyph name="bar_bar.liga" format="1">
  <advance width="1200"/>
  <outline>
    <contour>
      <point x="481" y="-218" type="line" name="hr00"/>
      <point x="481" y="840" type="line"/>
      <point x="355" y="840" type="line"/>
      <point x="355" y="-218" type="line"/>
    </contour>
    <contour>
      <point x="836" y="-218" type="line" name="hr00"/>
      <point x="836" y="840" type="line"/>
      <point x="710" y="840" type="line"/>
      <point x="710" y="-218" type="line"/>
    </contour>
  </outline>
</glyph>
<glyph name="colon_equal.liga" format="1">
  <advance width="1200"/>
  <outline>
    <contour>
      <point x="1061" y="361" type="line" name="hr00"/>
      <point x="1061" y="479" type="line"/>
      <point x="438" y="479" type="line"/>
      <point x="438" y="361" type="line"/>
    </contour>
    <contour>
      <point x="1061" y="131" type="line"/>
      <point x="1061" y="249" type="line"/>
      <point x="438" y="249" type="line"/>
      <point x="438" y="131" type="line"/>
    </contour>
    <component base="period" xOffset="-77" yOffset="48"/>
    <component base="period" xOffset="-77" yOffset="388"/>
  </outline>
</glyph>
<glyph name="equal_equal.liga" format="1">
  <advance width="1200"/>
  <outline>
    <contour>
      <point x="1138" y="361" type="line" name="hr00"/>
      <point x="1138" y="479" type="line"/>
      <point x="62" y="479" type="line"/>
      <point x="62" y="361" type="line"/>
    </contour>
    <contour>
      <point x="1138" y="131" type="line"/>
      <point x="1138" y="249" type="line"/>
      <point x="62" y="249" type="line"/>
      <point x="62" y="131" type="line"/>
    </contour>
  </outline>
</glyph>
<glyph name="equal_equal_equal.liga" format="1">
  <advance width="1800"/>
  <outline>
    <contour>
      <point x="1738" y="477" type="line" name="hr00"/>
      <point x="1738" y="595" type="line"/>
      <point x="62" y="595" type="line"/>
      <point x="62" y="477" type="line"/>
    </contour>
    <contour>
      <point x="1738" y="247" type="line"/>
      <point x="1738" y="365" type="line"/>
      <point x="62" y="365" type="line"/>
      <point x="62" y="247" type="line"/>
    </contour>
    <contour>
      <point x="1738" y="17" type="line"/>
      <point x="1738" y="135" type="line"/>
      <point x="62" y="135" type="line"/>
      <point x="62" y="17" type="line"/>
    </contour>
  </outline>
</glyph>
<glyph name="equal_equal_greater.liga" format="1">
  <advance width="1800"/>
  <outline>
    <contour>
      <point x="1502" y="366" type="line"/>
      <point x="1503" y="362" type="line"/>
      <point x="1574" y="423" type="line"/>
      <point x="1503" y="484" type="line"/>
      <point x="1502" y="480" type="line"/>
      <point x="1422" y="484" type="line"/>
      <point x="133" y="484" type="line"/>
      <point x="133" y="362" type="line"/>
      <point x="1422" y="362" type="line"/>
    </contour>
    <contour>
      <point x="1500" y="132" type="line"/>
      <point x="1501" y="128" type="line"/>
      <point x="1572" y="189" type="line"/>
      <point x="1501" y="250" type="line"/>
      <point x="1500" y="246" type="line"/>
      <point x="1420" y="250" type="line"/>
      <point x="131" y="250" type="line"/>
      <point x="131" y="128" type="line"/>
      <point x="1420" y="128" type="line"/>
    </contour>
    <component base="_arrowhead.right" xOffset="1200"/>
  </outline>
</glyph>
<glyph name="equal_exclam_equal.liga" format="1">
  <advance width="1800"/>
  <outline>
    <contour>
      <point x="1738" y="361" type="line" name="hr00"/>
      <point x="1738" y="479" type="line"/>
      <point x="1115" y="479" type="line"/>
      <point x="1115" y="361" type="line"/>
    </contour>
    <contour>
      <point x="1738" y="131" type="line"/>
      <point x="1738" y="249" type="line"/>
      <point x="1115" y="249" type="line"/>
      <point x="1115" y="131" type="line"/>
    </contour>
    <contour>
      <point x="685" y="361" type="line" name="hr00"/>
      <point x="685" y="479" type="line"/>
      <point x="62" y="479" type="line"/>
      <point x="62" y="361" type="line"/>
    </contour>
    <contour>
      <point x="685" y="131" type="line"/>
      <point x="685" y="249" type="line"/>
      <point x="62" y="249" type="line"/>
      <point x="62" y="131" type="line"/>
    </contour>
    <component base="exclam" xOffset="600"/>
  </outline>
</glyph>
<glyph name="equal_greater.liga" format="1">
  <advance width="1200"/>
  <outline>
    <contour>
      <point x="904" y="366" type="line"/>
      <point x="905" y="362" type="line"/>
      <point x="976" y="423" type="line"/>
      <point x="905" y="484" type="line"/>
      <point x="904" y="480" type="line"/>
      <point x="824" y="484" type="line"/>
      <point x="133" y="484" type="line"/>
      <point x="133" y="362" type="line"/>
      <point x="824" y="362" type="line"/>
    </contour>
    <contour>
      <point x="902" y="132" type="line"/>
      <point x="903" y="128" type="line"/>
      <point x="974" y="189" type="line"/>
      <point x="903" y="250" type="line"/>
      <point x="902" y="246" type="line"/>
      <point x="822" y="250" type="line"/>
      <point x="131" y="250" type="line"/>
      <point x="131" y="128" type="line"/>
      <point x="822" y="128" type="line"/>
    </contour>
    <component base="_arrowhead.right" xOffset="600"/>
  </outline>
</glyph>
<glyph name="equal_greater_greater.liga" format="1">
  <advance width="1800"/>
  <outline>
    <contour>
      <point x="1184" y="366" type="line"/>
      <point x="1185" y="362" type="line"/>
      <point x="1256" y="423" type="line"/>
      <point x="1185" y="484" type="line"/>
      <point x="1184" y="480" type="line"/>
      <point x="1104" y="484" type="line"/>
      <point x="133" y="484" type="line"/>
      <point x="133" y="362" type="line"/>
      <point x="1104" y="362" type="line"/>
    </contour>
    <contour>
      <point x="1182" y="132" type="line"/>
      <point x="1183" y="128" type="line"/>
      <point x="1254" y="189" type="line"/>
      <point x="1183" y="250" type="line"/>
      <point x="1182" y="246" type="line"/>
      <point x="1102" y="250" type="line"/>
      <point x="131" y="250" type="line"/>
      <point x="131" y="128" type="line"/>
      <point x="1102" y="128" type="line"/>
    </contour>
    <component base="_arrowhead.right" xOffset="1200"/>
    <component base="_arrowhead.right" xOffset="882"/>
  </outline>
</glyph>
<glyph name="equal_less_less.liga" format="1">
  <advance width="1800"/>
  <outline>
    <contour>
      <point x="1155" y="250" type="line"/>
      <point x="131" y="250" type="line"/>
      <point x="131" y="128" type="line"/>
      <point x="1053" y="128" type="line"/>
      <point x="1123" y="132" type="line"/>
      <point x="1124" y="128" type="line"/>
      <point x="1274" y="-22" type="line"/>
      <point x="1354" y="58" type="line"/>
      <point x="1205" y="207" type="line"/>
    </contour>
    <contour>
      <point x="1155" y="362" type="line"/>
      <point x="1205" y="405" type="line"/>
      <point x="1354" y="554" type="line"/>
      <point x="1274" y="634" type="line"/>
      <point x="1124" y="484" type="line"/>
      <point x="1123" y="480" type="line"/>
      <point x="1055" y="484" type="line"/>
      <point x="133" y="484" type="line"/>
      <point x="133" y="362" type="line"/>
    </contour>
    <component base="_arrowhead.left" xOffset="1175"/>
  </outline>
</glyph>
<glyph name="exclam_equal.liga" format="1">
  <advance width="1200"/>
  <outline>
    <contour>
      <point x="500" y="-43" type="line" name="hr00"/>
      <point x="834" y="655" type="line"/>
      <point x="701" y="655" type="line"/>
      <point x="367" y="-43" type="line"/>
    </contour>
    <component base="equal_equal.liga"/>
  </outline>
</glyph>
<glyph name="exclam_equal_equal.liga" format="1">
  <advance width="1800"/>
  <outline>
    <contour>
      <point x="776" y="-143" type="line" name="hr00"/>
      <point x="1158" y="755" type="line"/>
      <point x="1025" y="755" type="line"/>
      <point x="643" y="-143" type="line"/>
    </contour>
    <component base="equal_equal_equal.liga"/>
  </outline>
</glyph>
<glyph name="greater_equal.liga" format="1">
  <advance width="1200"/>
  <outline>
    <contour>
      <point x="385" y="-72" type="line" name="hr00"/>
      <point x="815" y="85" type="line"/>
      <point x="815" y="201" type="line"/>
      <point x="385" y="44" type="line"/>
    </contour>
    <contour>
      <point x="385" y="620" type="line"/>
      <point x="385" y="496" type="line"/>
      <point x="674" y="398" type="line"/>
      <point x="674" y="391" type="line"/>
      <point x="385" y="295" type="line"/>
      <point x="385" y="169" type="line"/>
      <point x="815" y="326" type="line"/>
      <point x="815" y="463" type="line"/>
    </contour>
  </outline>
</glyph>
<glyph name="greater_equal_greater.liga" format="1">
  <advance width="1800"/>
  <outline>
    <contour>
      <point x="1402" y="128" type="line"/>
      <point x="1482" y="132" type="line"/>
      <point x="1483" y="128" type="line"/>
      <point x="1554" y="189" type="line"/>
      <point x="1483" y="250" type="line"/>
      <point x="1482" y="246" type="line"/>
      <point x="1402" y="250" type="line"/>
      <point x="383" y="250" type="line"/>
      <point x="333" y="207" type="line"/>
      <point x="184" y="58" type="line"/>
      <point x="264" y="-22" type="line"/>
      <point x="414" y="128" type="line"/>
      <point x="415" y="132" type="line"/>
      <point x="485" y="128" type="line"/>
    </contour>
    <contour>
      <point x="1404" y="362" type="line"/>
      <point x="1484" y="366" type="line"/>
      <point x="1485" y="362" type="line"/>
      <point x="1556" y="423" type="line"/>
      <point x="1485" y="484" type="line"/>
      <point x="1484" y="480" type="line"/>
      <point x="1404" y="484" type="line"/>
      <point x="483" y="484" type="line"/>
      <point x="415" y="480" type="line"/>
      <point x="414" y="484" type="line"/>
      <point x="264" y="634" type="line"/>
      <point x="184" y="554" type="line"/>
      <point x="333" y="405" type="line"/>
      <point x="383" y="362" type="line"/>
    </contour>
    <component base="_arrowhead.right" xOffset="1180"/>
  </outline>
</glyph>
<glyph name="greater_greater_equal.liga" format="1">
  <advance width="1800"/>
  <outline>
    <contour>
      <point x="648" y="250" type="line"/>
      <point x="598" y="207" type="line"/>
      <point x="449" y="58" type="line"/>
      <point x="529" y="-22" type="line"/>
      <point x="679" y="128" type="line"/>
      <point x="680" y="132" type="line"/>
      <point x="750" y="128" type="line"/>
      <point x="1672" y="128" type="line"/>
      <point x="1672" y="250" type="line"/>
    </contour>
    <contour>
      <point x="648" y="362" type="line"/>
      <point x="1670" y="362" type="line"/>
      <point x="1670" y="484" type="line"/>
      <point x="748" y="484" type="line"/>
      <point x="680" y="480" type="line"/>
      <point x="679" y="484" type="line"/>
      <point x="529" y="634" type="line"/>
      <point x="449" y="554" type="line"/>
      <point x="598" y="405" type="line"/>
    </contour>
    <component base="_arrowhead.right" xOffset="25"/>
  </outline>
</glyph>
<glyph name="greater_greater_hyphen.liga" format="1">
  <advance width="1800"/>
  <outline>
    <contour>
      <point x="794" y="249" type="line"/>
      <point x="874" y="245" type="line"/>
      <point x="1667" y="245" type="line"/>
      <point x="1667" y="367" type="line"/>
      <point x="874" y="367" type="line"/>
      <point x="794" y="363" type="line"/>
      <point x="793" y="367" type="line"/>
      <point x="793" y="245" type="line"/>
    </contour>
    <component base="_arrowhead.right" xOffset="343"/>
    <component base="_arrowhead.right" xOffset="25"/>
  </outline>
</glyph>
<glyph name="greater_hyphen.liga" format="1">
  <advance width="1200"/>
  <outline>
    <contour>
      <point x="476" y="249" type="line"/>
      <point x="556" y="245" type="line"/>
      <point x="1067" y="245" type="line"/>
      <point x="1067" y="367" type="line"/>
      <point x="556" y="367" type="line"/>
      <point x="476" y="363" type="line"/>
      <point x="475" y="367" type="line"/>
      <point x="475" y="245" type="line"/>
    </contour>
    <component base="_arrowhead.right" xOffset="24"/>
  </outline>
</glyph>
<glyph name="hyphen_greater.liga" format="1">
  <advance width="1200"/>
  <outline>
    <contour>
      <point x="896" y="249" type="line"/>
      <point x="897" y="245" type="line"/>
      <point x="968" y="306" type="line"/>
      <point x="897" y="367" type="line"/>
      <point x="896" y="363" type="line"/>
      <point x="816" y="367" type="line"/>
      <point x="133" y="367" type="line"/>
      <point x="133" y="245" type="line"/>
      <point x="816" y="245" type="line"/>
    </contour>
    <component base="_arrowhead.right" xOffset="600"/>
  </outline>
</glyph>
<glyph name="hyphen_hyphen_greater.liga" format="1">
  <advance width="1800"/>
  <outline>
    <contour>
      <point x="1640" y="234" type="line" name="hr00"/>
      <point x="1640" y="375" type="line"/>
      <point x="155" y="375" type="line"/>
      <point x="155" y="234" type="line"/>
    </contour>
    <component base="greater" xOffset="1200"/>
  </outline>
</glyph>
<glyph name="hyphen_less.liga" format="1">
  <advance width="1200"/>
  <outline>
    <contour>
      <point x="735" y="249" type="line"/>
      <point x="736" y="245" type="line"/>
      <point x="807" y="306" type="line"/>
      <point x="736" y="367" type="line"/>
      <point x="735" y="363" type="line"/>
      <point x="655" y="367" type="line"/>
      <point x="133" y="367" type="line"/>
      <point x="133" y="245" type="line"/>
      <point x="655" y="245" type="line"/>
    </contour>
    <component base="_arrowhead.left" xOffset="575"/>
  </outline>
</glyph>
<glyph name="hyphen_less_less.liga" format="1">
  <advance width="1800"/>
  <outline>
    <contour>
      <point x="1017" y="249" type="line"/>
      <point x="1018" y="245" type="line"/>
      <point x="1089" y="306" type="line"/>
      <point x="1018" y="367" type="line"/>
      <point x="1017" y="363" type="line"/>
      <point x="937" y="367" type="line"/>
      <point x="133" y="367" type="line"/>
      <point x="133" y="245" type="line"/>
      <point x="937" y="245" type="line"/>
    </contour>
    <component base="_arrowhead.left" xOffset="857"/>
    <component base="_arrowhead.left" xOffset="1175"/>
  </outline>
</glyph>
<glyph name="less_equal_equal.liga" format="1">
  <advance width="1800"/>
  <outline>
    <contour>
      <point x="298" y="366" type="line"/>
      <point x="378" y="362" type="line"/>
      <point x="1667" y="362" type="line"/>
      <point x="1667" y="484" type="line"/>
      <point x="378" y="484" type="line"/>
      <point x="298" y="480" type="line"/>
      <point x="297" y="484" type="line"/>
      <point x="226" y="423" type="line"/>
      <point x="297" y="362" type="line"/>
    </contour>
    <contour>
      <point x="300" y="132" type="line"/>
      <point x="380" y="128" type="line"/>
      <point x="1669" y="128" type="line"/>
      <point x="1669" y="250" type="line"/>
      <point x="380" y="250" type="line"/>
      <point x="300" y="246" type="line"/>
      <point x="299" y="250" type="line"/>
      <point x="228" y="189" type="line"/>
      <point x="299" y="128" type="line"/>
    </contour>
    <component base="_arrowhead.left"/>
  </outline>
</glyph>
<glyph name="less_equal_equal_greater.liga" format="1">
  <advance width="2400"/>
  <outline>
    <contour>
      <point x="2022" y="250" type="line"/>
      <point x="387" y="250" type="line"/>
      <point x="307" y="246" type="line"/>
      <point x="306" y="250" type="line"/>
      <point x="235" y="189" type="line"/>
      <point x="306" y="128" type="line"/>
      <point x="307" y="132" type="line"/>
      <point x="387" y="128" type="line"/>
      <point x="2022" y="128" type="line"/>
      <point x="2102" y="132" type="line"/>
      <point x="2103" y="128" type="line"/>
      <point x="2174" y="189" type="line"/>
      <point x="2103" y="250" type="line"/>
      <point x="2102" y="246" type="line"/>
    </contour>
    <contour>
      <point x="385" y="362" type="line"/>
      <point x="2024" y="362" type="line"/>
      <point x="2104" y="366" type="line"/>
      <point x="2105" y="362" type="line"/>
      <point x="2176" y="423" type="line"/>
      <point x="2105" y="484" type="line"/>
      <point x="2104" y="480" type="line"/>
      <point x="2024" y="484" type="line"/>
      <point x="385" y="484" type="line"/>
      <point x="305" y="480" type="line"/>
      <point x="304" y="484" type="line"/>
      <point x="233" y="423" type="line"/>
      <point x="304" y="362" type="line"/>
      <point x="305" y="366" type="line"/>
    </contour>
    <component base="_arrowhead.right" xOffset="1800"/>
    <component base="_arrowhead.left"/>
  </outline>
</glyph>
<glyph name="less_equal_greater.liga" format="1">
  <advance width="1800"/>
  <outline>
    <contour>
      <point x="1422" y="250" type="line"/>
      <point x="378" y="250" type="line"/>
      <point x="298" y="246" type="line"/>
      <point x="297" y="250" type="line"/>
      <point x="226" y="189" type="line"/>
      <point x="297" y="128" type="line"/>
      <point x="298" y="132" type="line"/>
      <point x="378" y="128" type="line"/>
      <point x="1422" y="128" type="line"/>
      <point x="1502" y="132" type="line"/>
      <point x="1503" y="128" type="line"/>
      <point x="1574" y="189" type="line"/>
      <point x="1503" y="250" type="line"/>
      <point x="1502" y="246" type="line"/>
    </contour>
    <contour>
      <point x="376" y="362" type="line"/>
      <point x="1424" y="362" type="line"/>
      <point x="1504" y="366" type="line"/>
      <point x="1505" y="362" type="line"/>
      <point x="1576" y="423" type="line"/>
      <point x="1505" y="484" type="line"/>
      <point x="1504" y="480" type="line"/>
      <point x="1424" y="484" type="line"/>
      <point x="376" y="484" type="line"/>
      <point x="296" y="480" type="line"/>
      <point x="295" y="484" type="line"/>
      <point x="224" y="423" type="line"/>
      <point x="295" y="362" type="line"/>
      <point x="296" y="366" type="line"/>
    </contour>
    <component base="_arrowhead.right" xOffset="1200"/>
    <component base="_arrowhead.left"/>
  </outline>
</glyph>
<glyph name="less_equal_less.liga" format="1">
  <advance width="1801"/>
  <outline>
    <contour>
      <point x="377" y="128" type="line"/>
      <point x="1294" y="128" type="line"/>
      <point x="1364" y="132" type="line"/>
      <point x="1365" y="128" type="line"/>
      <point x="1515" y="-22" type="line"/>
      <point x="1595" y="58" type="line"/>
      <point x="1446" y="207" type="line"/>
      <point x="1396" y="250" type="line"/>
      <point x="377" y="250" type="line"/>
      <point x="297" y="246" type="line"/>
      <point x="296" y="250" type="line"/>
      <point x="225" y="189" type="line"/>
      <point x="296" y="128" type="line"/>
      <point x="297" y="132" type="line"/>
    </contour>
    <contour>
      <point x="375" y="362" type="line"/>
      <point x="1396" y="362" type="line"/>
      <point x="1446" y="405" type="line"/>
      <point x="1595" y="554" type="line"/>
      <point x="1515" y="634" type="line"/>
      <point x="1365" y="484" type="line"/>
      <point x="1364" y="480" type="line"/>
      <point x="1296" y="484" type="line"/>
      <point x="375" y="484" type="line"/>
      <point x="295" y="480" type="line"/>
      <point x="294" y="484" type="line"/>
      <point x="223" y="423" type="line"/>
      <point x="294" y="362" type="line"/>
      <point x="295" y="366" type="line"/>
    </contour>
    <component base="_arrowhead.left"/>
  </outline>
</glyph>
<glyph name="less_exclam_hyphen_hyphen.liga" format="1">
  <advance width="2400"/>
  <outline>
    <contour>
      <point x="689" y="234" type="line" name="hr00"/>
      <point x="689" y="376" type="line"/>
      <point x="89" y="376" type="line"/>
      <point x="89" y="234" type="line"/>
    </contour>
    <contour>
      <point x="2305" y="234" type="line" name="hr00"/>
      <point x="2305" y="376" type="line"/>
      <point x="1111" y="376" type="line"/>
      <point x="1111" y="234" type="line"/>
    </contour>
    <component base="less"/>
    <component base="exclam" xOffset="600"/>
  </outline>
</glyph>
<glyph name="less_hyphen.liga" format="1">
  <advance width="1200"/>
  <outline>
    <contour>
      <point x="304" y="249" type="line"/>
      <point x="384" y="245" type="line"/>
      <point x="1067" y="245" type="line"/>
      <point x="1067" y="367" type="line"/>
      <point x="384" y="367" type="line"/>
      <point x="304" y="363" type="line"/>
      <point x="303" y="367" type="line"/>
      <point x="232" y="306" type="line"/>
      <point x="303" y="245" type="line"/>
    </contour>
    <component base="_arrowhead.left"/>
  </outline>
</glyph>
<glyph name="less_less_equal.liga" format="1">
  <advance width="1800"/>
  <outline>
    <contour>
      <point x="616" y="366" type="line"/>
      <point x="696" y="362" type="line"/>
      <point x="1667" y="362" type="line"/>
      <point x="1667" y="484" type="line"/>
      <point x="696" y="484" type="line"/>
      <point x="616" y="480" type="line"/>
      <point x="615" y="484" type="line"/>
      <point x="544" y="423" type="line"/>
      <point x="615" y="362" type="line"/>
    </contour>
    <contour>
      <point x="618" y="132" type="line"/>
      <point x="698" y="128" type="line"/>
      <point x="1669" y="128" type="line"/>
      <point x="1669" y="250" type="line"/>
      <point x="698" y="250" type="line"/>
      <point x="618" y="246" type="line"/>
      <point x="617" y="250" type="line"/>
      <point x="546" y="189" type="line"/>
      <point x="617" y="128" type="line"/>
    </contour>
    <component base="_arrowhead.left"/>
    <component base="_arrowhead.left" xOffset="318"/>
  </outline>
</glyph>
<glyph name="less_slash.liga" format="1">
  <advance width="1200"/>
  <outline>
    <contour>
      <point x="515" y="605" type="line" name="hr00"/>
      <point x="85" y="375" type="line"/>
      <point x="85" y="237" type="line"/>
      <point x="630" y="-54" type="line"/>
      <point x="674" y="61" type="line"/>
      <point x="218" y="302" type="line"/>
      <point x="218" y="310" type="line"/>
      <point x="515" y="467" type="line"/>
    </contour>
    <component base="slash" xOffset="500"/>
  </outline>
</glyph>
<glyph name="less_slash_greater.liga" format="1">
  <advance width="1800"/>
  <outline>
    <contour>
      <point x="615" y="605" type="line" name="hr00"/>
      <point x="185" y="375" type="line"/>
      <point x="185" y="237" type="line"/>
      <point x="730" y="-54" type="line"/>
      <point x="774" y="61" type="line"/>
      <point x="318" y="302" type="line"/>
      <point x="318" y="310" type="line"/>
      <point x="615" y="467" type="line"/>
    </contour>
    <contour>
      <point x="1185" y="6" type="line" name="hr00"/>
      <point x="1615" y="236" type="line"/>
      <point x="1615" y="374" type="line"/>
      <point x="1070" y="665" type="line"/>
      <point x="1026" y="550" type="line"/>
      <point x="1482" y="309" type="line"/>
      <point x="1482" y="301" type="line"/>
      <point x="1185" y="144" type="line"/>
    </contour>
    <component base="slash" xOffset="600"/>
  </outline>
</glyph>
<glyph name="numbersign_numbersign.liga" format="1">
  <advance width="1200"/>
  <outline>
    <contour>
      <point x="584" y="504" type="line"/>
      <point x="584" y="394" type="line"/>
      <point x="652" y="394" type="line"/>
      <point x="652" y="504" type="line"/>
    </contour>
    <contour>
      <point x="548" y="304" type="line"/>
      <point x="548" y="194" type="line"/>
      <point x="616" y="194" type="line"/>
      <point x="616" y="304" type="line"/>
    </contour>
    <component base="numbersign" xOffset="600"/>
    <component base="numbersign"/>
  </outline>
</glyph>
<glyph name="numbersign_numbersign_numbersign_numbersign.liga" format="1">
  <advance width="2400"/>
  <outline>
    <contour>
      <point x="584" y="504" type="line"/>
      <point x="584" y="394" type="line"/>
      <point x="652" y="394" type="line"/>
      <point x="652" y="504" type="line"/>
    </contour>
    <contour>
      <point x="548" y="304" type="line"/>
      <point x="548" y="194" type="line"/>
      <point x="616" y="194" type="line"/>
      <point x="616" y="304" type="line"/>
    </contour>
    <contour>
      <point x="1184" y="504" type="line"/>
      <point x="1184" y="394" type="line"/>
      <point x="1252" y="394" type="line"/>
      <point x="1252" y="504" type="line"/>
    </contour>
    <contour>
      <point x="1148" y="304" type="line"/>
      <point x="1148" y="194" type="line"/>
      <point x="1216" y="194" type="line"/>
      <point x="1216" y="304" type="line"/>
    </contour>
    <contour>
      <point x="1784" y="504" type="line"/>
      <point x="1784" y="394" type="line"/>
      <point x="1852" y="394" type="line"/>
      <point x="1852" y="504" type="line"/>
    </contour>
    <contour>
      <point x="1748" y="304" type="line"/>
      <point x="1748" y="194" type="line"/>
      <point x="1816" y="194" type="line"/>
      <point x="1816" y="304" type="line"/>
    </contour>
    <component base="numbersign" xOffset="600"/>
    <component base="numbersign" xOffset="1200"/>
    <component base="numbersign" xOffset="1800"/>
    <component base="numbersign"/>
  </outline>
</glyph>
<glyph name="slash_equal.liga" format="1">
  <advance width="1200"/>
  <outline>
    <contour>
      <point x="195" y="-43" type="line" name="hr00"/>
      <point x="529" y="655" type="line"/>
      <point x="396" y="655" type="line"/>
      <point x="62" y="-43" type="line"/>
    </contour>
    <component base="equal_equal.liga"/>
  </outline>
</glyph>
<glyph name="slash_greater.liga" format="1">
  <advance width="1200"/>
  <outline>
    <contour>
      <point x="685" y="6" type="line" name="hr00"/>
      <point x="1115" y="236" type="line"/>
      <point x="1115" y="374" type="line"/>
      <point x="570" y="665" type="line"/>
      <point x="526" y="550" type="line"/>
      <point x="982" y="309" type="line"/>
      <point x="982" y="301" type="line"/>
      <point x="685" y="144" type="line"/>
    </contour>
    <component base="slash" xOffset="100"/>
  </outline>
</glyph>
<glyph name="underscore_underscore.liga" format="1">
  <advance width="1200"/>
  <outline>
    <contour>
      <point x="1140" y="-192" type="line" name="hr00"/>
      <point x="1140" y="-71" type="line"/>
      <point x="60" y="-71" type="line"/>
      <point x="60" y="-192" type="line"/>
    </contour>
  </outline>
</glyph>
